<svg width="648" height="640" viewBox="0 0 648 640" fill="none" xmlns="http://www.w3.org/2000/svg">
<path fill-rule="evenodd" clip-rule="evenodd" d="M648 0H0V640H203.046L238.464 596.799L186.159 533H230.427L282.665 596.717L282.439 596.809L282.652 596.896L247.314 640H290.887L326.305 596.799L274 533H318.269L370.506 596.717L370.28 596.809L370.494 596.896L335.156 640H382.49L417.908 596.799L365.604 533H409.872L462.11 596.717L461.883 596.809L462.097 596.896L426.759 640H473.49L508.908 596.799L456.604 533H500.872L553.109 596.717L552.883 596.809L553.097 596.896L517.759 640H568.046L603.464 596.799L551.159 533H595.428L647.665 596.717L647.439 596.809L647.653 596.896L612.314 640H648V0Z" fill="#FF9900"/>
</svg>
