<svg width="34" height="37" viewBox="0 0 34 37" fill="none" xmlns="http://www.w3.org/2000/svg">
<path fill-rule="evenodd" clip-rule="evenodd" d="M27 15C27 21.6274 21.6274 27 15 27C8.37258 27 3 21.6274 3 15C3 8.37258 8.37258 3 15 3C21.6274 3 27 8.37258 27 15ZM23.7988 27.1496C21.3272 28.9427 18.287 30 15 30C6.71573 30 0 23.2843 0 15C0 6.71573 6.71573 0 15 0C23.2843 0 30 6.71573 30 15C30 18.9156 28.4997 22.4808 26.0426 25.152L33.2923 34.2143C33.8099 34.8611 33.705 35.8051 33.0581 36.3226C32.4112 36.8401 31.4672 36.7352 30.9497 36.0883L23.7988 27.1496Z" fill="#3B322E"/>
</svg>
