<svg width="72" height="72" viewBox="0 0 72 72" fill="none" xmlns="http://www.w3.org/2000/svg">
<circle cx="36" cy="36" r="36" fill="#FE0000"/>
<path fill-rule="evenodd" clip-rule="evenodd" d="M0.219715 40C0.0745332 38.6867 0 37.352 0 36C0 16.1177 16.1177 0 36 0C38.3952 0 40.7357 0.233907 43 0.680125V40H0.219715Z" fill="#000094"/>
<circle cx="23.5" cy="22.6982" r="7" fill="#FFFFF5"/>
<path d="M10 22.6982L16 21.3992V23.9973L10 22.6982Z" fill="#FFFFF5"/>
<path d="M11.7146 15.8026L17.5 17.8561L16.1326 20.0652L11.7146 15.8026Z" fill="#FFFFF5"/>
<path d="M16.6938 10.6982L20.6764 15.3702L18.3873 16.5991L16.6938 10.6982Z" fill="#FFFFF5"/>
<path d="M23.5 36.1982L22.201 30.1982H24.799L23.5 36.1982Z" fill="#FFFFF5"/>
<path d="M16.5976 34.6598L18.651 28.8744L20.8601 30.2418L16.5976 34.6598Z" fill="#FFFFF5"/>
<path d="M11.5 29.5703L16.1719 25.5878L17.4008 27.8769L11.5 29.5703Z" fill="#FFFFF5"/>
<path d="M30.4574 34.5165L26.2682 30.029L28.4995 28.6981L30.4574 34.5165Z" fill="#FFFFF5"/>
<path d="M37.0724 22.709L31.0518 23.9091L31.0946 21.3114L37.0724 22.709Z" fill="#FFFFF5"/>
<path d="M35.3122 29.6941L29.4986 27.7219L30.835 25.4939L35.3122 29.6941Z" fill="#FFFFF5"/>
<path d="M23.4807 9L24.7797 15H22.1816L23.4807 9Z" fill="#FFFFF5"/>
<path d="M30.6731 10.9567L28.5 16.6982L26.3198 15.2852L30.6731 10.9567Z" fill="#FFFFF5"/>
<path d="M35.2481 15.7905L30.9061 20.1305L29.4999 17.9459L35.2481 15.7905Z" fill="#FFFFF5"/>
</svg>
