<svg width="72" height="72" viewBox="0 0 72 72" fill="none" xmlns="http://www.w3.org/2000/svg">
<mask id="mask0_147_600" style="mask-type:alpha" maskUnits="userSpaceOnUse" x="0" y="0" width="72" height="72">
<circle cx="36" cy="36" r="36" fill="#D9D9D9"/>
</mask>
<g mask="url(#mask0_147_600)">
<path fill-rule="evenodd" clip-rule="evenodd" d="M93 0H35V5H93V0ZM35 23H93V28H35V23ZM93 34H35V39H93V34ZM-21 45H93V50H-21V45ZM93 56H-21V61H93V56ZM93 67H-21V72H93V67ZM35 12H93V17H35V12Z" fill="#900000"/>
<path d="M35 0H-21V39H35V0Z" fill="#1D2163"/>
<path d="M2 2L2.449 3.38197H3.9021L2.7265 4.23607L3.1756 5.61803L2 4.76393L0.8244 5.61803L1.2735 4.23607L0.0979004 3.38197H1.551L2 2Z" fill="#F5F5F5"/>
<path d="M2 10L2.449 11.382H3.9021L2.7265 12.2361L3.1756 13.618L2 12.7639L0.8244 13.618L1.2735 12.2361L0.0979004 11.382H1.551L2 10Z" fill="#F5F5F5"/>
<path d="M2 17L2.449 18.382H3.9021L2.7265 19.2361L3.1756 20.618L2 19.7639L0.8244 20.618L1.2735 19.2361L0.0979004 18.382H1.551L2 17Z" fill="#F5F5F5"/>
<path d="M2 25L2.449 26.382H3.9021L2.7265 27.2361L3.1756 28.618L2 27.7639L0.8244 28.618L1.2735 27.2361L0.0979004 26.382H1.551L2 25Z" fill="#F5F5F5"/>
<path d="M2 33L2.449 34.382H3.9021L2.7265 35.2361L3.1756 36.618L2 35.7639L0.8244 36.618L1.2735 35.2361L0.0979004 34.382H1.551L2 33Z" fill="#F5F5F5"/>
<path d="M12 2L12.449 3.38197H13.9021L12.7265 4.23607L13.1756 5.61803L12 4.76393L10.8244 5.61803L11.2735 4.23607L10.0979 3.38197H11.551L12 2Z" fill="#F5F5F5"/>
<path d="M12 10L12.449 11.382H13.9021L12.7265 12.2361L13.1756 13.618L12 12.7639L10.8244 13.618L11.2735 12.2361L10.0979 11.382H11.551L12 10Z" fill="#F5F5F5"/>
<path d="M12 17L12.449 18.382H13.9021L12.7265 19.2361L13.1756 20.618L12 19.7639L10.8244 20.618L11.2735 19.2361L10.0979 18.382H11.551L12 17Z" fill="#F5F5F5"/>
<path d="M12 25L12.449 26.382H13.9021L12.7265 27.2361L13.1756 28.618L12 27.7639L10.8244 28.618L11.2735 27.2361L10.0979 26.382H11.551L12 25Z" fill="#F5F5F5"/>
<path d="M12 33L12.449 34.382H13.9021L12.7265 35.2361L13.1756 36.618L12 35.7639L10.8244 36.618L11.2735 35.2361L10.0979 34.382H11.551L12 33Z" fill="#F5F5F5"/>
<path d="M22 2L22.449 3.38197H23.9021L22.7265 4.23607L23.1756 5.61803L22 4.76393L20.8244 5.61803L21.2735 4.23607L20.0979 3.38197H21.551L22 2Z" fill="#F5F5F5"/>
<path d="M22 10L22.449 11.382H23.9021L22.7265 12.2361L23.1756 13.618L22 12.7639L20.8244 13.618L21.2735 12.2361L20.0979 11.382H21.551L22 10Z" fill="#F5F5F5"/>
<path d="M22 17L22.449 18.382H23.9021L22.7265 19.2361L23.1756 20.618L22 19.7639L20.8244 20.618L21.2735 19.2361L20.0979 18.382H21.551L22 17Z" fill="#F5F5F5"/>
<path d="M22 25L22.449 26.382H23.9021L22.7265 27.2361L23.1756 28.618L22 27.7639L20.8244 28.618L21.2735 27.2361L20.0979 26.382H21.551L22 25Z" fill="#F5F5F5"/>
<path d="M22 33L22.449 34.382H23.9021L22.7265 35.2361L23.1756 36.618L22 35.7639L20.8244 36.618L21.2735 35.2361L20.0979 34.382H21.551L22 33Z" fill="#F5F5F5"/>
<path d="M32 2L32.449 3.38197H33.9021L32.7265 4.23607L33.1756 5.61803L32 4.76393L30.8244 5.61803L31.2735 4.23607L30.0979 3.38197H31.551L32 2Z" fill="#F5F5F5"/>
<path d="M32 10L32.449 11.382H33.9021L32.7265 12.2361L33.1756 13.618L32 12.7639L30.8244 13.618L31.2735 12.2361L30.0979 11.382H31.551L32 10Z" fill="#F5F5F5"/>
<path d="M32 17L32.449 18.382H33.9021L32.7265 19.2361L33.1756 20.618L32 19.7639L30.8244 20.618L31.2735 19.2361L30.0979 18.382H31.551L32 17Z" fill="#F5F5F5"/>
<path d="M32 25L32.449 26.382H33.9021L32.7265 27.2361L33.1756 28.618L32 27.7639L30.8244 28.618L31.2735 27.2361L30.0979 26.382H31.551L32 25Z" fill="#F5F5F5"/>
<path d="M32 33L32.449 34.382H33.9021L32.7265 35.2361L33.1756 36.618L32 35.7639L30.8244 36.618L31.2735 35.2361L30.0979 34.382H31.551L32 33Z" fill="#F5F5F5"/>
<path d="M7 6L7.449 7.38197H8.9021L7.7265 8.23607L8.1756 9.61803L7 8.76393L5.8244 9.61803L6.2735 8.23607L5.0979 7.38197H6.551L7 6Z" fill="#F5F5F5"/>
<path d="M7 14L7.449 15.382H8.9021L7.7265 16.2361L8.1756 17.618L7 16.7639L5.8244 17.618L6.2735 16.2361L5.0979 15.382H6.551L7 14Z" fill="#F5F5F5"/>
<path d="M7 21L7.449 22.382H8.9021L7.7265 23.2361L8.1756 24.618L7 23.7639L5.8244 24.618L6.2735 23.2361L5.0979 22.382H6.551L7 21Z" fill="#F5F5F5"/>
<path d="M7 29L7.449 30.382H8.9021L7.7265 31.2361L8.1756 32.618L7 31.7639L5.8244 32.618L6.2735 31.2361L5.0979 30.382H6.551L7 29Z" fill="#F5F5F5"/>
<path d="M17 6L17.449 7.38197H18.9021L17.7265 8.23607L18.1756 9.61803L17 8.76393L15.8244 9.61803L16.2735 8.23607L15.0979 7.38197H16.551L17 6Z" fill="#F5F5F5"/>
<path d="M17 14L17.449 15.382H18.9021L17.7265 16.2361L18.1756 17.618L17 16.7639L15.8244 17.618L16.2735 16.2361L15.0979 15.382H16.551L17 14Z" fill="#F5F5F5"/>
<path d="M17 21L17.449 22.382H18.9021L17.7265 23.2361L18.1756 24.618L17 23.7639L15.8244 24.618L16.2735 23.2361L15.0979 22.382H16.551L17 21Z" fill="#F5F5F5"/>
<path d="M17 29L17.449 30.382H18.9021L17.7265 31.2361L18.1756 32.618L17 31.7639L15.8244 32.618L16.2735 31.2361L15.0979 30.382H16.551L17 29Z" fill="#F5F5F5"/>
<path d="M27 6L27.449 7.38197H28.9021L27.7265 8.23607L28.1756 9.61803L27 8.76393L25.8244 9.61803L26.2735 8.23607L25.0979 7.38197H26.551L27 6Z" fill="#F5F5F5"/>
<path d="M27 14L27.449 15.382H28.9021L27.7265 16.2361L28.1756 17.618L27 16.7639L25.8244 17.618L26.2735 16.2361L25.0979 15.382H26.551L27 14Z" fill="#F5F5F5"/>
<path d="M27 21L27.449 22.382H28.9021L27.7265 23.2361L28.1756 24.618L27 23.7639L25.8244 24.618L26.2735 23.2361L25.0979 22.382H26.551L27 21Z" fill="#F5F5F5"/>
<path d="M27 29L27.449 30.382H28.9021L27.7265 31.2361L28.1756 32.618L27 31.7639L25.8244 32.618L26.2735 31.2361L25.0979 30.382H26.551L27 29Z" fill="#F5F5F5"/>
</g>
</svg>
